<mxfile host="app.diagrams.net" modified="2023-03-30T09:48:05.217Z" agent="5.0 (Windows NT 10.0; Win64; x64) AppleWebKit/537.36 (KHTML, like Gecko) Chrome/111.0.0.0 Safari/537.36 Edg/111.0.1661.54" etag="6tHgO50F9sxSZBOpbsf3" version="21.0.10" type="github">
  <diagram name="第 1 页" id="QWs2OUtahTp_4iVBiYvr">
    <mxGraphModel dx="1674" dy="788" grid="1" gridSize="10" guides="1" tooltips="1" connect="1" arrows="1" fold="1" page="1" pageScale="1" pageWidth="827" pageHeight="1169" math="0" shadow="0">
      <root>
        <mxCell id="0" />
        <mxCell id="1" parent="0" />
        <mxCell id="F8SisLxMHx2SGx92o3Pz-2" value="协议" style="rounded=0;whiteSpace=wrap;html=1;" vertex="1" parent="1">
          <mxGeometry x="414" y="220" width="120" height="60" as="geometry" />
        </mxCell>
        <mxCell id="F8SisLxMHx2SGx92o3Pz-3" value="版本1" style="rounded=0;whiteSpace=wrap;html=1;" vertex="1" parent="1">
          <mxGeometry x="414" y="280" width="119" height="30" as="geometry" />
        </mxCell>
        <mxCell id="F8SisLxMHx2SGx92o3Pz-4" value="版本2" style="rounded=0;whiteSpace=wrap;html=1;" vertex="1" parent="1">
          <mxGeometry x="414" y="310" width="119" height="30" as="geometry" />
        </mxCell>
        <mxCell id="F8SisLxMHx2SGx92o3Pz-9" value="设备" style="rounded=0;whiteSpace=wrap;html=1;" vertex="1" parent="1">
          <mxGeometry x="773" y="220" width="120" height="60" as="geometry" />
        </mxCell>
        <mxCell id="F8SisLxMHx2SGx92o3Pz-18" value="版本1" style="rounded=0;whiteSpace=wrap;html=1;" vertex="1" parent="1">
          <mxGeometry x="773" y="280" width="119" height="30" as="geometry" />
        </mxCell>
        <mxCell id="F8SisLxMHx2SGx92o3Pz-19" value="版本2" style="rounded=0;whiteSpace=wrap;html=1;" vertex="1" parent="1">
          <mxGeometry x="774" y="310" width="119" height="30" as="geometry" />
        </mxCell>
        <mxCell id="F8SisLxMHx2SGx92o3Pz-20" value="" style="endArrow=classic;startArrow=classic;html=1;rounded=0;entryX=0;entryY=0.5;entryDx=0;entryDy=0;" edge="1" parent="1" target="F8SisLxMHx2SGx92o3Pz-18">
          <mxGeometry width="50" height="50" relative="1" as="geometry">
            <mxPoint x="533" y="295" as="sourcePoint" />
            <mxPoint x="593" y="280" as="targetPoint" />
          </mxGeometry>
        </mxCell>
        <mxCell id="F8SisLxMHx2SGx92o3Pz-21" value="" style="endArrow=classic;startArrow=classic;html=1;rounded=0;exitX=1;exitY=0.5;exitDx=0;exitDy=0;" edge="1" parent="1" source="F8SisLxMHx2SGx92o3Pz-4">
          <mxGeometry width="50" height="50" relative="1" as="geometry">
            <mxPoint x="543" y="340" as="sourcePoint" />
            <mxPoint x="773" y="325" as="targetPoint" />
          </mxGeometry>
        </mxCell>
        <mxCell id="F8SisLxMHx2SGx92o3Pz-25" value="网关" style="rounded=0;whiteSpace=wrap;html=1;" vertex="1" parent="1">
          <mxGeometry x="90" y="180" width="120" height="60" as="geometry" />
        </mxCell>
        <mxCell id="F8SisLxMHx2SGx92o3Pz-27" value="网关" style="rounded=0;whiteSpace=wrap;html=1;" vertex="1" parent="1">
          <mxGeometry x="90" y="320" width="120" height="60" as="geometry" />
        </mxCell>
        <mxCell id="F8SisLxMHx2SGx92o3Pz-28" value="版本1" style="rounded=0;whiteSpace=wrap;html=1;" vertex="1" parent="1">
          <mxGeometry x="90" y="240" width="119" height="30" as="geometry" />
        </mxCell>
        <mxCell id="F8SisLxMHx2SGx92o3Pz-29" value="版本2" style="rounded=0;whiteSpace=wrap;html=1;" vertex="1" parent="1">
          <mxGeometry x="90" y="270" width="119" height="30" as="geometry" />
        </mxCell>
        <mxCell id="F8SisLxMHx2SGx92o3Pz-32" value="" style="endArrow=classic;startArrow=classic;html=1;rounded=0;exitX=1;exitY=0.5;exitDx=0;exitDy=0;entryX=0;entryY=0.5;entryDx=0;entryDy=0;" edge="1" parent="1" source="F8SisLxMHx2SGx92o3Pz-28" target="F8SisLxMHx2SGx92o3Pz-3">
          <mxGeometry width="50" height="50" relative="1" as="geometry">
            <mxPoint x="620" y="60" as="sourcePoint" />
            <mxPoint x="670" y="10" as="targetPoint" />
          </mxGeometry>
        </mxCell>
        <mxCell id="F8SisLxMHx2SGx92o3Pz-33" value="" style="endArrow=classic;startArrow=classic;html=1;rounded=0;exitX=1;exitY=0.5;exitDx=0;exitDy=0;" edge="1" parent="1" source="F8SisLxMHx2SGx92o3Pz-29">
          <mxGeometry width="50" height="50" relative="1" as="geometry">
            <mxPoint x="219" y="265" as="sourcePoint" />
            <mxPoint x="410" y="300" as="targetPoint" />
          </mxGeometry>
        </mxCell>
        <mxCell id="F8SisLxMHx2SGx92o3Pz-34" value="协议与其他主体的关系：&lt;br&gt;厂家：n:1 一个厂家提供多种协议&lt;br&gt;&lt;div style=&quot;&quot;&gt;&lt;span style=&quot;background-color: initial;&quot;&gt;设备：1:1 每个协议+版本适配指定的设备型号+版本&lt;/span&gt;&lt;/div&gt;&lt;div style=&quot;&quot;&gt;网关：n:n 每个协议适配多种网关&lt;/div&gt;" style="text;html=1;strokeColor=none;fillColor=none;align=left;verticalAlign=middle;whiteSpace=wrap;rounded=0;" vertex="1" parent="1">
          <mxGeometry x="440" y="40" width="370" height="100" as="geometry" />
        </mxCell>
      </root>
    </mxGraphModel>
  </diagram>
</mxfile>
